<?xml version="1.0" standalone="no"?>
<!DOCTYPE svg PUBLIC "-//W3C//DTD SVG 20010904//EN"
 "http://www.w3.org/TR/2001/REC-SVG-20010904/DTD/svg10.dtd">
<svg version="1.0" xmlns="http://www.w3.org/2000/svg"
 width="1024.000000pt" height="1024.000000pt" viewBox="0 0 1024.000000 1024.000000"
 preserveAspectRatio="xMidYMid meet">

<g transform="translate(0.000000,1024.000000) scale(0.100000,-0.100000)"
fill="#000000" stroke="none">
<path d="M7418 9128 c-39 -33 -48 -61 -48 -159 0 -53 -5 -111 -12 -130 -15
-46 -62 -116 -154 -229 -84 -104 -128 -186 -144 -269 -15 -78 -13 -187 4 -219
32 -61 213 -209 241 -198 8 3 19 24 25 48 31 116 37 124 143 213 56 46 112 99
124 117 12 18 45 96 75 173 l53 140 0 120 c-1 113 -2 124 -31 185 -42 89 -177
220 -227 220 -18 0 -40 -6 -49 -12z"/>
<path d="M5003 8504 c-74 -60 -1200 -954 -1718 -1364 -177 -140 -460 -365
-630 -500 -169 -135 -480 -382 -692 -548 -414 -328 -423 -337 -423 -428 0 -63
29 -107 88 -135 44 -22 61 -23 307 -27 l260 -4 0 -1862 c0 -1745 1 -1865 18
-1926 63 -235 235 -399 482 -460 79 -20 111 -20 2450 -18 l2370 3 78 22 c197
56 348 175 425 333 77 158 72 23 72 2074 l0 1834 263 4 c285 4 295 6 360 66
65 62 51 168 -35 248 -40 39 -600 486 -753 602 l-110 84 -5 286 c-3 158 -3
337 -2 399 l4 112 44 43 c24 23 49 58 55 77 15 43 5 171 -16 210 -26 51 -85
90 -180 120 -141 45 -222 56 -415 55 -206 -1 -334 -23 -439 -76 -100 -51 -105
-61 -111 -243 -3 -84 -8 -157 -13 -161 -4 -4 -22 6 -40 23 -90 84 -1487 1189
-1517 1200 -72 25 -103 18 -177 -43z m279 -562 c57 -44 187 -147 289 -229 403
-320 924 -734 1080 -858 90 -71 292 -230 449 -354 709 -559 643 -504 638 -529
-2 -11 -20 -21 -53 -28 -37 -9 -706 -12 -2601 -13 -2452 -1 -2553 0 -2574 17
-33 26 -19 44 107 143 59 46 175 137 258 202 82 65 220 173 305 240 85 66 229
180 320 252 91 72 327 257 525 411 198 154 495 385 659 514 429 334 414 323
458 317 27 -4 66 -27 140 -85z m2408 -2452 c6 -9 9 -685 7 -1830 -2 -1739 -3
-1817 -20 -1854 -43 -92 -107 -146 -204 -171 -47 -12 -148 -15 -565 -15 l-507
0 -5 32 c-3 18 -10 132 -16 253 -11 233 -55 1019 -69 1245 l-9 135 27 40 c15
22 33 54 40 71 10 25 27 37 86 63 131 58 234 171 317 347 54 116 71 207 71
389 0 166 -25 317 -85 505 -78 244 -218 420 -414 518 -84 43 -136 54 -249 55
-85 0 -109 -3 -163 -25 -109 -45 -174 -90 -272 -188 -141 -142 -222 -292 -281
-518 -88 -342 -45 -607 145 -890 81 -119 131 -169 211 -207 59 -29 76 -42 91
-73 9 -20 31 -50 47 -65 l30 -28 -33 -597 c-18 -328 -37 -700 -44 -827 l-11
-230 -667 -3 -668 -2 -4 22 c-3 13 -9 127 -15 253 -20 405 -40 774 -55 980
-32 435 -32 419 -1 468 20 32 45 52 92 77 286 148 399 532 372 1260 -13 343
-29 458 -69 495 -28 25 -94 37 -140 25 -47 -13 -86 -70 -106 -159 -17 -74 -44
-422 -53 -690 l-7 -213 -26 -23 c-32 -28 -62 -23 -85 11 -13 20 -17 87 -24
402 -11 515 -26 641 -86 712 -22 26 -31 30 -77 30 -73 0 -112 -28 -152 -107
-22 -42 -35 -88 -43 -145 -16 -116 -31 -523 -24 -644 7 -122 -3 -229 -24 -249
-19 -19 -77 -19 -96 0 -11 11 -16 60 -21 217 -17 502 -38 727 -79 808 -19 39
-27 46 -62 52 -54 8 -134 -8 -161 -33 -39 -37 -42 -59 -80 -651 -13 -211 -14
-278 -5 -370 37 -351 131 -556 311 -677 33 -21 81 -46 107 -55 42 -14 52 -23
77 -70 l29 -54 -7 -133 c-8 -170 -29 -563 -55 -1029 -12 -201 -22 -396 -23
-435 l-3 -70 -540 0 -540 0 -52 24 c-29 13 -70 43 -92 66 -77 84 -71 -92 -71
1951 0 1009 1 1835 3 1836 8 9 1537 12 3170 8 1690 -4 1919 -7 1927 -20z"/>
</g>
</svg>
